<svg xmlns="http://www.w3.org/2000/svg" width="1280" height="720" viewBox="0 0 1280 720" role="img" aria-label="Tela de relatorios e progresso">
  <rect width="1280" height="720" fill="#f8fafc"/>
  <rect x="0" y="0" width="1280" height="72" fill="#0f172a"/>
  <text x="28" y="46" fill="#f8fafc" font-family="Segoe UI, Arial" font-size="24" font-weight="700">Relatorios e Progresso</text>
  <rect x="30" y="110" width="1220" height="580" rx="14" fill="#ffffff" stroke="#cbd5e1"/>
  <text x="60" y="150" fill="#0f172a" font-family="Segoe UI, Arial" font-size="22" font-weight="700">Resumo semanal</text>
  <polyline points="70,420 180,360 290,380 400,300 510,320 620,250 730,260" fill="none" stroke="#2563eb" stroke-width="6"/>
  <line x1="70" y1="450" x2="760" y2="450" stroke="#94a3b8" stroke-width="2"/>
  <line x1="70" y1="230" x2="70" y2="450" stroke="#94a3b8" stroke-width="2"/>
  <rect x="820" y="170" width="390" height="190" rx="12" fill="#f1f5f9" stroke="#cbd5e1"/>
  <text x="850" y="212" fill="#0f172a" font-family="Segoe UI, Arial" font-size="18" font-weight="600">KPIs</text>
  <text x="850" y="250" fill="#334155" font-family="Segoe UI, Arial" font-size="16">Tempo total: 31h 40m</text>
  <text x="850" y="280" fill="#334155" font-family="Segoe UI, Arial" font-size="16">Sessoes: 42</text>
  <text x="850" y="310" fill="#334155" font-family="Segoe UI, Arial" font-size="16">Acuracia quiz: 78%</text>
  <rect x="820" y="390" width="390" height="250" rx="12" fill="#f8fafc" stroke="#cbd5e1"/>
  <text x="850" y="432" fill="#0f172a" font-family="Segoe UI, Arial" font-size="18" font-weight="600">Recomendacao</text>
  <text x="850" y="466" fill="#334155" font-family="Segoe UI, Arial" font-size="16">Aumentar revisao em Fisica</text>
  <text x="850" y="496" fill="#334155" font-family="Segoe UI, Arial" font-size="16">Manter streak acima de 7 dias</text>
</svg>
